# Blender v2.76 (sub 0) OBJ File: 'palette.blend'
# www.blender.org
o Palette
v 0.031709 -0.497250 0.376250 #c1
v 0.031709 -0.434750 0.376250
v 0.031709 -0.497250 0.313750
v 0.031709 -0.434750 0.313750
v 0.094209 -0.497250 0.376250
v 0.094209 -0.434750 0.376250
v 0.094209 -0.497250 0.313750
v 0.094209 -0.434750 0.313750
vt 0.000000 0.000000
vt 0.2500000 0.000000
vt 0.2500000 0.2500000
vt 0.000000 0.2500000
vn -1.000000 0.000000 0.000000
vn 0.000000 0.000000 -1.000000
vn 1.000000 0.000000 0.000000
vn 0.000000 0.000000 1.000000
vn 0.000000 -1.000000 0.000000
vn 0.000000 1.000000 0.000000

v -0.070791 -0.497250 0.376250 #c2
v -0.070791 -0.434750 0.376250
v -0.070791 -0.497250 0.313750
v -0.070791 -0.434750 0.313750
v -0.008291 -0.497250 0.376250
v -0.008291 -0.434750 0.376250
v -0.008291 -0.497250 0.313750
v -0.008291 -0.434750 0.313750
vt 0.250000 0.000000
vt 0.500000 0.000000
vt 0.500000 0.250000
vt 0.250000 0.250000
vn -1.000000 0.000000 0.000000
vn 0.000000 0.000000 -1.000000
vn 1.000000 0.000000 0.000000
vn 0.000000 0.000000 1.000000
vn 0.000000 -1.000000 0.000000
vn 0.000000 1.000000 0.000000

v -0.173291 -0.497250 0.376250 #c3
v -0.173291 -0.434750 0.376250
v -0.173291 -0.497250 0.313750
v -0.173291 -0.434750 0.313750
v -0.110791 -0.497250 0.376250
v -0.110791 -0.434750 0.376250
v -0.110791 -0.497250 0.313750
v -0.110791 -0.434750 0.313750
vt 0.500000 0.000000
vt 0.750000 0.000000
vt 0.750000 0.250000
vt 0.500000 0.250000
vn -1.000000 0.000000 0.000000
vn 0.000000 0.000000 -1.000000
vn 1.000000 0.000000 0.000000
vn 0.000000 0.000000 1.000000
vn 0.000000 -1.000000 0.000000
vn 0.000000 1.000000 0.000000

v -0.275791 -0.497250 -0.033750 #c8
v -0.275791 -0.434750 -0.033750
v -0.275791 -0.497250 -0.096250
v -0.275791 -0.434750 -0.096250
v -0.213291 -0.497250 -0.033750
v -0.213291 -0.434750 -0.033750
v -0.213291 -0.497250 -0.096250
v -0.213291 -0.434750 -0.096250
vt 0.750000 0.250000
vt 1.000000 0.250000
vt 1.000000 0.500000
vt 0.750000 0.500000
vn -1.000000 0.000000 0.000000
vn 0.000000 0.000000 -1.000000
vn 1.000000 0.000000 0.000000
vn 0.000000 0.000000 1.000000
vn 0.000000 -1.000000 0.000000
vn 0.000000 1.000000 0.000000

v -0.275791 -0.497250 0.068750 #c7
v -0.275791 -0.434750 0.068750
v -0.275791 -0.497250 0.006250
v -0.275791 -0.434750 0.006250
v -0.213291 -0.497250 0.068750
v -0.213291 -0.434750 0.068750
v -0.213291 -0.497250 0.006250
v -0.213291 -0.434750 0.006250
vt 0.500000 0.250000
vt 0.750000 0.250000
vt 0.750000 0.500000
vt 0.500000 0.500000
vn -1.000000 0.000000 0.000000
vn 0.000000 0.000000 -1.000000
vn 1.000000 0.000000 0.000000
vn 0.000000 0.000000 1.000000
vn 0.000000 -1.000000 0.000000
vn 0.000000 1.000000 0.000000

v -0.275791 -0.497250 0.171250 #c6
v -0.275791 -0.434750 0.171250
v -0.275791 -0.497250 0.108750
v -0.275791 -0.434750 0.108750
v -0.213291 -0.497250 0.171250
v -0.213291 -0.434750 0.171250
v -0.213291 -0.497250 0.108750
v -0.213291 -0.434750 0.108750
vt 0.250000 0.250000
vt 0.500000 0.250000
vt 0.500000 0.500000
vt 0.250000 0.500000
vn -1.000000 0.000000 0.000000
vn 0.000000 0.000000 -1.000000
vn 1.000000 0.000000 0.000000
vn 0.000000 0.000000 1.000000
vn 0.000000 -1.000000 0.000000
vn 0.000000 1.000000 0.000000

v -0.275791 -0.497250 0.273750 #c5
v -0.275791 -0.434750 0.273750
v -0.275791 -0.497250 0.211250
v -0.275791 -0.434750 0.211250
v -0.213291 -0.497250 0.273750
v -0.213291 -0.434750 0.273750
v -0.213291 -0.497250 0.211250
v -0.213291 -0.434750 0.211250
vt 0.000000 0.250000
vt 0.250000 0.250000
vt 0.250000 0.500000
vt 0.000000 0.500000
vn -1.000000 0.000000 0.000000
vn 0.000000 0.000000 -1.000000
vn 1.000000 0.000000 0.000000
vn 0.000000 0.000000 1.000000
vn 0.000000 -1.000000 0.000000
vn 0.000000 1.000000 0.000000

v -0.275791 -0.497250 0.376250 #c4
v -0.275791 -0.434750 0.376250
v -0.275791 -0.497250 0.313750
v -0.275791 -0.434750 0.313750
v -0.213291 -0.497250 0.376250
v -0.213291 -0.434750 0.376250
v -0.213291 -0.497250 0.313750
v -0.213291 -0.434750 0.313750
vt 0.750000 0.000000
vt 1.000000 0.000000
vt 1.000000 0.250000
vt 0.750000 0.250000
vn -1.000000 0.000000 0.000000
vn 0.000000 0.000000 -1.000000
vn 1.000000 0.000000 0.000000
vn 0.000000 0.000000 1.000000
vn 0.000000 -1.000000 0.000000
vn 0.000000 1.000000 0.000000

v -0.032345 -0.500000 -0.141615 #wood
v -0.300000 -0.500000 0.400000
v -0.300000 -0.500000 -0.400000
v -0.032345 -0.500000 -0.279097
v -0.126630 -0.500000 -0.279097
v -0.126630 -0.500000 -0.141615
v 0.300000 -0.500000 -0.400000
v 0.300000 -0.500000 0.400000
v 0.300000 -0.468750 -0.400000
v -0.300000 -0.468750 -0.400000
v 0.300000 -0.468750 0.400000
v -0.300000 -0.468750 0.400000
v -0.032345 -0.468750 -0.141615
v -0.032345 -0.468750 -0.279097
v -0.126630 -0.468750 -0.141615
v -0.126630 -0.468750 -0.279097
vt 0.463768 0.000000
vt 0.597774 0.100753
vt 0.597774 0.215321
vt 0.670651 0.215321
vt 0.927536 0.000000
vt 0.927536 0.666667
vt 0.975845 1.000000
vt 0.975845 0.500000
vt 1.000000 0.500000
vt 0.951691 0.666667
vt 0.951691 0.000000
vt 0.975845 0.000000
vt 1.000000 0.000000
vt 0.463768 0.666667
vt 0.206883 0.451346
vt 0.134006 0.565914
vt 0.000000 0.666667
vt 0.134006 0.451346
vt 0.024155 0.666667
vt 0.048309 0.666667
vt 0.048309 0.781234
vt 0.072464 0.745237
vt 0.072464 0.666667
vt 0.096618 0.666667
vt 0.048309 0.745237
vt 0.024155 0.781234
vt 0.000000 0.781234
vt 0.670651 0.100753
vt 1.000000 1.000000
vt 0.975845 0.666667
vt 0.000000 0.000000
vt 0.206883 0.565914
vt 0.096618 0.745237
vn 0.000000 -1.000000 0.000000
vn 0.000000 0.000000 -1.000000
vn 1.000000 0.000000 0.000000
vn -0.000000 0.000000 1.000000
vn -1.000000 -0.000000 -0.000000
vn 0.000000 1.000000 0.000000

g wood
s off
f 67/33/49 69/34/49 70/35/49
f 65/36/49 71/37/49 72/38/49
f 71/39/50 67/40/50 74/41/50
f 73/42/51 75/43/51 72/44/51
f 75/40/52 76/44/52 66/45/52
f 76/43/53 74/42/53 67/38/53
f 75/33/54 73/46/54 77/47/54
f 80/48/54 74/49/54 79/50/54
f 65/51/53 77/52/53 78/53/53
f 78/54/52 80/55/52 69/56/52
f 70/54/50 79/57/50 77/52/50
f 70/51/51 69/58/51 80/59/51
f 70/35/49 65/36/49 66/46/49
f 67/33/49 68/60/49 69/34/49
f 70/35/49 66/46/49 67/33/49
f 68/60/49 67/33/49 71/37/49
f 72/38/49 66/46/49 65/36/49
f 65/36/49 68/60/49 71/37/49
f 73/61/50 71/39/50 74/41/50
f 71/62/51 73/42/51 72/44/51
f 72/41/52 75/40/52 66/45/52
f 66/37/53 76/43/53 67/38/53
f 77/47/54 76/63/54 75/33/54
f 73/46/54 74/49/54 78/64/54
f 78/64/54 77/47/54 73/46/54
f 76/63/54 77/47/54 79/50/54
f 80/48/54 78/64/54 74/49/54
f 76/63/54 79/50/54 74/49/54
f 68/58/53 65/51/53 78/53/53
f 68/65/52 78/54/52 69/56/52
f 65/55/50 70/54/50 77/52/50
f 79/49/51 70/51/51 80/59/51

g color
s off
f 2/1/1 4/2/1 3/3/1 1/4/1
f 4/1/2 8/2/2 7/3/2 3/4/2
f 8/1/3 6/2/3 5/3/3 7/4/3
f 6/1/4 2/2/4 1/3/4 5/4/4
f 1/1/5 3/2/5 7/3/5 5/4/5
f 6/1/6 8/2/6 4/3/6 2/4/6

f 10/5/7 12/6/7 11/7/7 9/8/7
f 12/5/8 16/6/8 15/7/8 11/8/8
f 16/5/9 14/6/9 13/7/9 15/8/9
f 14/5/10 10/6/10 9/7/10 13/8/10
f 9/5/11 11/6/11 15/7/11 13/8/11
f 14/5/12 16/6/12 12/7/12 10/8/12

f 18/9/13 20/10/13 19/11/13 17/12/13
f 20/9/14 24/10/14 23/11/14 19/12/14
f 24/9/15 22/10/15 21/11/15 23/12/15
f 22/9/16 18/10/16 17/11/16 21/12/16
f 17/9/17 19/10/17 23/11/17 21/12/17
f 22/9/18 24/10/18 20/11/18 18/12/18

f 58/29/43 60/30/43 59/31/43 57/32/43
f 60/29/44 64/30/44 63/31/44 59/32/44
f 64/29/45 62/30/45 61/31/45 63/32/45
f 62/29/46 58/30/46 57/31/46 61/32/46
f 57/29/47 59/30/47 63/31/47 61/32/47
f 62/29/48 64/30/48 60/31/48 58/32/48

f 50/25/37 52/26/37 51/27/37 49/28/37
f 52/25/38 56/26/38 55/27/38 51/28/38
f 56/25/39 54/26/39 53/27/39 55/28/39
f 54/25/40 50/26/40 49/27/40 53/28/40
f 49/25/41 51/26/41 55/27/41 53/28/41
f 54/25/42 56/26/42 52/27/42 50/28/42

f 42/21/31 44/22/31 43/23/31 41/24/31
f 44/21/32 48/22/32 47/23/32 43/24/32
f 48/21/33 46/22/33 45/23/33 47/24/33
f 46/21/34 42/22/34 41/23/34 45/24/34
f 41/21/35 43/22/35 47/23/35 45/24/35
f 46/21/36 48/22/36 44/23/36 42/24/36

f 34/17/25 36/18/25 35/19/25 33/20/25
f 36/17/26 40/18/26 39/19/26 35/20/26
f 40/17/27 38/18/27 37/19/27 39/20/27
f 38/17/28 34/18/28 33/19/28 37/20/28
f 33/17/29 35/18/29 39/19/29 37/20/29
f 38/17/30 40/18/30 36/19/30 34/20/30

f 26/13/19 28/14/19 27/15/19 25/16/19
f 28/13/20 32/14/20 31/15/20 27/16/20
f 32/13/21 30/14/21 29/15/21 31/16/21
f 30/13/22 26/14/22 25/15/22 29/16/22
f 25/13/23 27/14/23 31/15/23 29/16/23
f 30/13/24 32/14/24 28/15/24 26/16/24
